<svg xmlns="http://www.w3.org/2000/svg" version="1.1" xmlns:xlink="http://www.w3.org/1999/xlink" xmlns:svgjs="http://svgjs.dev/svgjs" width="1500" height="1500" viewBox="0 0 1500 1500"><rect width="1500" height="1500" fill="#149fa8"></rect><g transform="matrix(0.6666666666666666,0,0,0.6666666666666666,249.12896473635374,333.8665160585308)"><svg viewBox="0 0 301 249" data-background-color="#149fa8" preserveAspectRatio="xMidYMid meet" height="1240" width="1500" xmlns="http://www.w3.org/2000/svg" xmlns:xlink="http://www.w3.org/1999/xlink"><g id="tight-bounds" transform="matrix(1,0,0,1,0.2621816143575302,1.333034564897929)"><svg viewBox="0 0 300.47563677128494 247.2" height="247.2" width="300.47563677128494"><g><svg viewBox="0 0 395.52 325.39258440584376" height="247.2" width="300.47563677128494"><g transform="matrix(1,0,0,1,0,195.8778335263582)"><svg viewBox="0 0 395.52 129.51475087948558" height="129.51475087948558" width="395.52"><g id="textblocktransform"><svg viewBox="0 0 395.52 129.51475087948558" height="129.51475087948558" width="395.52" id="textblock"><g><svg viewBox="0 0 395.52 71.53818181818181" height="71.53818181818181" width="395.52"><g transform="matrix(1,0,0,1,0,0)"><svg width="395.52" viewBox="1.5 -37.6 211.18 38.2" height="71.53818181818181" data-palette-color="#cae6d3"><path d="M13.2 0.6L13.2 0.6Q9.55 0.6 6.55-0.38 3.55-1.35 1.5-2.95L1.5-2.95 3.9-6.95Q5.7-5.45 7.95-4.5 10.2-3.55 13.2-3.55L13.2-3.55Q16.8-3.55 18.9-5.05 21-6.55 21-9.1L21-9.1Q21-10.55 20.4-11.68 19.8-12.8 18.07-13.88 16.35-14.95 13-16.2L13-16.2Q9.4-17.6 7.25-19.03 5.1-20.45 4.17-22.28 3.25-24.1 3.25-26.6L3.25-26.6Q3.25-29.1 4.63-31.13 6-33.15 8.68-34.38 11.35-35.6 15.15-35.6L15.15-35.6Q18.25-35.6 20.73-34.98 23.2-34.35 25.55-33.2L25.55-33.2 23.8-29.15Q22.1-30.15 19.83-30.83 17.55-31.5 15.05-31.5L15.05-31.5Q11.75-31.5 9.85-30.2 7.95-28.9 7.95-26.85L7.95-26.85Q7.95-25.55 8.5-24.55 9.05-23.55 10.68-22.6 12.3-21.65 15.55-20.45L15.55-20.45Q19.45-19 21.73-17.4 24-15.8 24.95-13.93 25.9-12.05 25.9-9.65L25.9-9.65Q25.9-6.4 24.28-4.1 22.65-1.8 19.78-0.6 16.9 0.6 13.2 0.6ZM42.3 0L37.35 0 29.15-24.8 33.3-26.25 40-5.1 46.1-24.15 50.95-24.15 56.9-5.1 63.55-26.25 67.55-24.8 59.3 0 54.35 0 48.35-19.35 42.3 0ZM77.3 0L72.8 0 72.8-26 77.3-26 77.3 0ZM75.05-30.45L75.05-30.45Q73.75-30.45 72.82-31.4 71.9-32.35 71.9-33.6L71.9-33.6Q71.9-35.05 72.75-35.9 73.6-36.75 75.05-36.75L75.05-36.75Q76.35-36.75 77.27-35.83 78.2-34.9 78.2-33.6L78.2-33.6Q78.2-32.2 77.35-31.33 76.5-30.45 75.05-30.45ZM90.29 0L85.79 0 85.79-21.15 81.79-21.15 81.79-25.05 85.79-25.05 85.79-28.1Q85.79-32.5 88.24-35.05 90.69-37.6 94.64-37.6L94.64-37.6Q96.69-37.6 98.24-37.13 99.79-36.65 101.19-35.95L101.19-35.95 99.84-32.15Q98.79-32.7 97.59-33.15 96.39-33.6 94.94-33.6L94.94-33.6Q92.84-33.6 91.57-32.27 90.29-30.95 90.29-28.4L90.29-28.4 90.29-25.05 97.99-25.05 97.99-21.15 90.29-21.15 90.29 0ZM114.04 0.6L114.04 0.6Q110.29 0.6 108.12-1.88 105.94-4.35 105.94-8.95L105.94-8.95 105.94-21.15 101.44-21.15 101.44-25.05 106.04-25.05 106.99-33.25 110.44-33.25 110.44-25.05 117.64-25.05 117.64-21.15 110.44-21.15 110.44-8.6Q110.44-5.7 111.67-4.55 112.89-3.4 114.59-3.4L114.59-3.4Q115.84-3.4 116.97-3.8 118.09-4.2 119.04-4.75L119.04-4.75 120.29-1.15Q119.29-0.55 117.59 0.03 115.89 0.6 114.04 0.6ZM130.04 0L125.29 0 125.29-35 130.04-35 130.04-20.05 147.29-20.05 147.29-35 152.04-35 152.04 0 147.29 0 147.29-15.95 130.04-15.95 130.04 0ZM165.04 0L160.54 0 160.54-26 165.04-26 165.04 0ZM162.79-30.45L162.79-30.45Q161.49-30.45 160.56-31.4 159.64-32.35 159.64-33.6L159.64-33.6Q159.64-35.05 160.49-35.9 161.34-36.75 162.79-36.75L162.79-36.75Q164.09-36.75 165.01-35.83 165.94-34.9 165.94-33.6L165.94-33.6Q165.94-32.2 165.09-31.33 164.24-30.45 162.79-30.45ZM177.53 0L173.03 0 173.03-26 177.38-26 177.38-20.35Q178.03-22 179.13-23.43 180.23-24.85 181.88-25.73 183.53-26.6 185.73-26.6L185.73-26.6Q186.48-26.6 187.23-26.53 187.98-26.45 188.48-26.3L188.48-26.3 187.13-21.65Q186.18-22.05 184.88-22.05L184.88-22.05Q183.03-22.05 181.36-21 179.68-19.95 178.61-17.75 177.53-15.55 177.53-12.15L177.53-12.15 177.53 0ZM201.88 0.6L201.88 0.6Q196.28 0.6 193.01-2.98 189.73-6.55 189.73-13L189.73-13Q189.73-16.9 191.21-19.98 192.68-23.05 195.33-24.83 197.98-26.6 201.48-26.6L201.48-26.6Q205.23-26.6 207.71-24.98 210.18-23.35 211.43-20.6 212.68-17.85 212.68-14.55L212.68-14.55Q212.68-12.8 212.53-11.15L212.53-11.15 194.33-11.15Q194.78-7.5 196.88-5.45 198.98-3.4 202.43-3.4L202.43-3.4Q204.68-3.4 206.48-3.88 208.28-4.35 209.93-5.1L209.93-5.1 210.98-1.25Q209.18-0.45 206.93 0.08 204.68 0.6 201.88 0.6ZM194.28-14.8L194.28-14.8 208.53-14.8Q208.53-18.6 206.63-20.65 204.73-22.7 201.38-22.7L201.38-22.7Q198.48-22.7 196.58-20.68 194.68-18.65 194.28-14.8Z" opacity="1" transform="matrix(1,0,0,1,0,0)" fill="#cae6d3" class="wordmark-text-0" data-fill-palette-color="primary" id="text-0"></path></svg></g></svg></g><g transform="matrix(1,0,0,1,0,88.4266296290909)"><svg viewBox="0 0 395.52 41.08812125039469" height="41.08812125039469" width="395.52"><g transform="matrix(1,0,0,1,0,0)"><svg width="395.52" viewBox="0 -38.7 474.99 49.35" height="41.08812125039469" data-palette-color="#cae6d3"><path d="M8.85-29.45L0-28.75 0.55-34.5 24.3-34.5 23.75-28.75 15.05-29.5 14.85-13 15.45 0 8.45 0 9.05-12.15 8.85-29.45ZM41.8-12.65Q41.8-16.1 41.2-17.25 40.6-18.4 38.4-18.4 36.2-18.4 33.4-16.65L33.4-16.65 33.4-13 33.95-1.25 27.2 0 27.8-12.15 27.2-37.45 34.05-38.7 33.4-25.75 33.4-19.9Q34.15-20.9 35.1-21.85 36.05-22.8 38.05-24 40.05-25.2 42.32-25.2 44.6-25.2 46.15-23.43 47.7-21.65 47.7-18.6L47.7-18.6 47.4-13 47.95-1 41.2 0.25 41.8-12.65ZM62.45-5.1L62.45-5.1Q63.9-5.1 65.5-5.85 67.09-6.6 68-7.35L68-7.35 68.9-8.1 71.2-5.3Q70.7-4.45 69.65-3.35 68.59-2.25 67.52-1.48 66.45-0.7 64.67-0.08 62.9 0.55 61 0.55L61 0.55Q56.95 0.55 54.4-2.53 51.84-5.6 51.84-10.45L51.84-10.45Q51.84-16.55 55.4-21.15 58.95-25.75 63.7-25.75L63.7-25.75Q67.34-25.75 69.37-23.7 71.4-21.65 71.4-17.95L71.4-17.95Q71.4-15.75 70.65-12.95L70.65-12.95 69.65-11.9 57.15-10.75Q58-5.1 62.45-5.1ZM62.45-20.6L62.45-20.6Q60.25-20.6 58.75-18.82 57.25-17.05 57-14.3L57-14.3 65.5-15.35Q65.65-16.5 65.65-17.25L65.65-17.25Q65.65-20.6 62.45-20.6ZM81.94-10.45Q81.94-16.85 85.39-21.3 88.84-25.75 93.47-25.75 98.09-25.75 100.67-22.75 103.24-19.75 103.24-14.8L103.24-14.8Q103.24-8.2 99.92-3.83 96.59 0.55 91.54 0.55L91.54 0.55Q87.39 0.55 84.67-2.58 81.94-5.7 81.94-10.45L81.94-10.45ZM97.64-12.2L97.64-12.2Q97.64-19.45 92.69-19.45L92.69-19.45Q87.54-19.45 87.54-12.65L87.54-12.65Q87.54-9.1 88.99-7.1 90.44-5.1 92.82-5.1 95.19-5.1 96.42-6.93 97.64-8.75 97.64-12.2ZM122.04-12.65Q122.04-16.1 121.44-17.25 120.84-18.4 118.64-18.4 116.44-18.4 113.64-16.65L113.64-16.65 113.64-13 114.19-1.25 107.49 0 108.09-12.15Q107.89-18.85 106.99-24.15L106.99-24.15 113.04-25.45Q113.39-22.55 113.54-19.8L113.54-19.8Q114.29-20.8 115.24-21.78 116.19-22.75 118.24-23.98 120.29-25.2 122.56-25.2 124.84-25.2 126.39-23.43 127.94-21.65 127.94-18.6L127.94-18.6 127.64-13 128.19-1 121.44 0.25 122.04-12.65ZM142.69-5.1L142.69-5.1Q144.14-5.1 145.74-5.85 147.34-6.6 148.24-7.35L148.24-7.35 149.14-8.1 151.44-5.3Q150.94-4.45 149.89-3.35 148.84-2.25 147.76-1.48 146.69-0.7 144.91-0.08 143.14 0.55 141.24 0.55L141.24 0.55Q137.19 0.55 134.64-2.53 132.09-5.6 132.09-10.45L132.09-10.45Q132.09-16.55 135.64-21.15 139.19-25.75 143.94-25.75L143.94-25.75Q147.59-25.75 149.61-23.7 151.64-21.65 151.64-17.95L151.64-17.95Q151.64-15.75 150.89-12.95L150.89-12.95 149.89-11.9 137.39-10.75Q138.24-5.1 142.69-5.1ZM142.69-20.6L142.69-20.6Q140.49-20.6 138.99-18.82 137.49-17.05 137.24-14.3L137.24-14.3 145.74-15.35Q145.89-16.5 145.89-17.25L145.89-17.25Q145.89-20.6 142.69-20.6ZM171.23-4.65L171.23-4.65Q173.83-4.65 173.83-6.95L173.83-6.95Q173.83-7.75 172.71-8.45 171.58-9.15 169.96-9.85 168.33-10.55 166.71-11.43 165.08-12.3 163.96-13.85 162.83-15.4 162.83-17.4L162.83-17.4Q162.83-20.75 165.78-23.25 168.73-25.75 172.58-25.75L172.58-25.75Q174.38-25.75 176.11-25.33 177.83-24.9 179.43-24L179.43-24 176.08-17.9Q175.73-18.2 175.18-18.65 174.63-19.1 173.11-19.83 171.58-20.55 170.41-20.55 169.23-20.55 168.61-20.03 167.98-19.5 167.98-18.57 167.98-17.65 169.71-16.73 171.43-15.8 173.48-15.03 175.53-14.25 177.26-12.48 178.98-10.7 178.98-8.25L178.98-8.25Q178.98-4.75 176.11-2.1 173.23 0.55 169.48 0.55L169.48 0.55Q167.08 0.55 165.01-0.5 162.93-1.55 162.03-2.6L162.03-2.6 161.13-3.65 165.08-8.25Q165.38-7.85 165.93-7.25 166.48-6.65 168.11-5.65 169.73-4.65 171.23-4.65ZM182.43-24.2L185.33-24.2 185.33-29.65 192.08-30.95 191.43-24.2 197.48-24.2 196.93-20.1 191.23-20.1 190.98-9.65Q190.98-7.3 191.43-6.53 191.88-5.75 193.08-5.75 194.28-5.75 196.28-6.3L196.28-6.3 196.58-2.75Q193.28 0 190.78 0 188.28 0 186.68-1.83 185.08-3.65 185.08-6.6L185.08-6.6 185.38-12.2 185.33-20.1 181.88-20.1 182.43-24.2ZM199.63-10.45Q199.63-16.85 203.08-21.3 206.53-25.75 211.15-25.75 215.78-25.75 218.35-22.75 220.93-19.75 220.93-14.8L220.93-14.8Q220.93-8.2 217.6-3.83 214.28 0.55 209.23 0.55L209.23 0.55Q205.08 0.55 202.35-2.58 199.63-5.7 199.63-10.45L199.63-10.45ZM215.33-12.2L215.33-12.2Q215.33-19.45 210.38-19.45L210.38-19.45Q205.23-19.45 205.23-12.65L205.23-12.65Q205.23-9.1 206.68-7.1 208.13-5.1 210.5-5.1 212.88-5.1 214.1-6.93 215.33-8.75 215.33-12.2ZM238.57-25.25L238.57-25.25Q241.77-25.25 243.95-22.45 246.12-19.65 246.12-14.9L246.12-14.9Q246.12-8.25 242.7-4.13 239.27 0 234.17 0L234.17 0Q233.12 0 231.82-0.15L231.82-0.15 232.07 9.4 225.22 10.65 225.87-12.15 225.92-12.15Q225.72-18.85 224.82-24.15L224.82-24.15 230.87-25.45Q231.17-22.8 231.37-20.2L231.37-20.2Q231.47-20.45 232.4-21.58 233.32-22.7 235.12-23.98 236.92-25.25 238.57-25.25ZM236.62-18.75L236.62-18.75Q233.97-18.75 231.47-17.3L231.47-17.3 231.47-13 231.67-5.85Q234.37-5.4 235.77-5.4L235.77-5.4Q240.57-5.4 240.57-12.08 240.57-18.75 236.62-18.75ZM272.87-38.25L271.32-32.55Q269.47-33 267.97-33 266.47-33 265.79-32.1 265.12-31.2 265.12-28.95L265.12-28.95 265.07-24.2 270.47-24.2 269.92-20.1 265.07-20.1 265.02-13 265.57-1.25 258.82 0 259.42-12.15 259.22-20.1 255.92-20.1 256.47-24.2 259.12-24.2 259.07-28Q259.07-32.45 261.82-35.58 264.57-38.7 268.52-38.7L268.52-38.7Q270.62-38.7 272.87-38.25L272.87-38.25ZM271.62-10.45Q271.62-16.85 275.07-21.3 278.52-25.75 283.14-25.75 287.77-25.75 290.34-22.75 292.92-19.75 292.92-14.8L292.92-14.8Q292.92-8.2 289.59-3.83 286.27 0.55 281.22 0.55L281.22 0.55Q277.07 0.55 274.34-2.58 271.62-5.7 271.62-10.45L271.62-10.45ZM287.32-12.2L287.32-12.2Q287.32-19.45 282.37-19.45L282.37-19.45Q277.22-19.45 277.22-12.65L277.22-12.65Q277.22-9.1 278.67-7.1 280.12-5.1 282.49-5.1 284.87-5.1 286.09-6.93 287.32-8.75 287.32-12.2ZM296.66-24.15L296.66-24.15 302.71-25.45Q303.16-21.6 303.31-18.15L303.31-18.15Q307.86-25.2 311.86-25.2L311.86-25.2 311.31-17.4Q308.41-17.4 306.74-16.88 305.06-16.35 303.31-14.8L303.31-14.8 303.31-13 303.86-1.25 297.16 0 297.76-12.15Q297.56-18.85 296.66-24.15ZM330.26-4.65L330.26-4.65Q332.86-4.65 332.86-6.95L332.86-6.95Q332.86-7.75 331.73-8.45 330.61-9.15 328.98-9.85 327.36-10.55 325.73-11.43 324.11-12.3 322.98-13.85 321.86-15.4 321.86-17.4L321.86-17.4Q321.86-20.75 324.81-23.25 327.76-25.75 331.61-25.75L331.61-25.75Q333.41-25.75 335.13-25.33 336.86-24.9 338.46-24L338.46-24 335.11-17.9Q334.76-18.2 334.21-18.65 333.66-19.1 332.13-19.83 330.61-20.55 329.43-20.55 328.26-20.55 327.63-20.03 327.01-19.5 327.01-18.57 327.01-17.65 328.73-16.73 330.46-15.8 332.51-15.03 334.56-14.25 336.28-12.48 338.01-10.7 338.01-8.25L338.01-8.25Q338.01-4.75 335.13-2.1 332.26 0.55 328.51 0.55L328.51 0.55Q326.11 0.55 324.03-0.5 321.96-1.55 321.06-2.6L321.06-2.6 320.16-3.65 324.11-8.25Q324.41-7.85 324.96-7.25 325.51-6.65 327.13-5.65 328.76-4.65 330.26-4.65ZM351.41-5.1L351.41-5.1Q352.86-5.1 354.46-5.85 356.06-6.6 356.96-7.35L356.96-7.35 357.86-8.1 360.16-5.3Q359.66-4.45 358.61-3.35 357.56-2.25 356.48-1.48 355.41-0.7 353.63-0.08 351.86 0.55 349.96 0.55L349.96 0.55Q345.91 0.55 343.36-2.53 340.81-5.6 340.81-10.45L340.81-10.45Q340.81-16.55 344.36-21.15 347.91-25.75 352.66-25.75L352.66-25.75Q356.31-25.75 358.33-23.7 360.36-21.65 360.36-17.95L360.36-17.95Q360.36-15.75 359.61-12.95L359.61-12.95 358.61-11.9 346.11-10.75Q346.96-5.1 351.41-5.1ZM351.41-20.6L351.41-20.6Q349.21-20.6 347.71-18.82 346.21-17.05 345.96-14.3L345.96-14.3 354.46-15.35Q354.61-16.5 354.61-17.25L354.61-17.25Q354.61-20.6 351.41-20.6ZM364.15-24.15L364.15-24.15 370.2-25.45Q370.65-21.6 370.8-18.15L370.8-18.15Q375.35-25.2 379.35-25.2L379.35-25.2 378.8-17.4Q375.9-17.4 374.23-16.88 372.55-16.35 370.8-14.8L370.8-14.8 370.8-13 371.35-1.25 364.65 0 365.25-12.15Q365.05-18.85 364.15-24.15ZM389.15-14.4L391-6.25 391.65-6.25 393.3-13.1 396-25.45 402.2-24.7 398.45-12.3 395.3-0.6 386.75 0.15 383.8-12 380.2-24.15 387-25.4 389.15-14.4ZM405.5-24.2L412.2-25.45 411.6-13 412.15-1.25 405.45 0 406.05-12.15 405.5-24.2ZM405.15-32.77Q405.15-34.45 406.45-35.77 407.75-37.1 409.45-37.1 411.15-37.1 412.05-36.18 412.95-35.25 412.95-33.4 412.95-31.55 411.67-30.23 410.4-28.9 408.72-28.9 407.05-28.9 406.1-30 405.15-31.1 405.15-32.77ZM426.3-19.25Q424.1-19.25 422.9-17.68 421.7-16.1 421.7-12.85 421.7-9.6 422.92-7.63 424.15-5.65 426.5-5.65L426.5-5.65Q427.7-5.65 428.85-6.4 430-7.15 430.6-7.9L430.6-7.9 431.15-8.7 433.65-6.1Q433.5-5.85 433.27-5.4 433.05-4.95 432.17-3.8 431.3-2.65 430.32-1.78 429.35-0.9 427.8-0.18 426.25 0.55 424.55 0.55L424.55 0.55Q420.8 0.55 418.45-2.5 416.1-5.55 416.1-10.45L416.1-10.45Q416.1-16.55 419.65-21.15 423.2-25.75 427.95-25.75L427.95-25.75Q429.4-25.75 430.85-25.33 432.3-24.9 433.8-24L433.8-24 430.3-17.85Q428.5-19.25 426.3-19.25ZM445.94-5.1L445.94-5.1Q447.39-5.1 448.99-5.85 450.59-6.6 451.49-7.35L451.49-7.35 452.39-8.1 454.69-5.3Q454.19-4.45 453.14-3.35 452.09-2.25 451.02-1.48 449.94-0.7 448.17-0.08 446.39 0.55 444.49 0.55L444.49 0.55Q440.44 0.55 437.89-2.53 435.34-5.6 435.34-10.45L435.34-10.45Q435.34-16.55 438.89-21.15 442.44-25.75 447.19-25.75L447.19-25.75Q450.84-25.75 452.87-23.7 454.89-21.65 454.89-17.95L454.89-17.95Q454.89-15.75 454.14-12.95L454.14-12.95 453.14-11.9 440.64-10.75Q441.49-5.1 445.94-5.1ZM445.94-20.6L445.94-20.6Q443.74-20.6 442.24-18.82 440.74-17.05 440.49-14.3L440.49-14.3 448.99-15.35Q449.14-16.5 449.14-17.25L449.14-17.25Q449.14-20.6 445.94-20.6ZM466.79-4.65L466.79-4.65Q469.39-4.65 469.39-6.95L469.39-6.95Q469.39-7.75 468.27-8.45 467.14-9.15 465.52-9.85 463.89-10.55 462.27-11.43 460.64-12.3 459.52-13.85 458.39-15.4 458.39-17.4L458.39-17.4Q458.39-20.75 461.34-23.25 464.29-25.75 468.14-25.75L468.14-25.75Q469.94-25.75 471.67-25.33 473.39-24.9 474.99-24L474.99-24 471.64-17.9Q471.29-18.2 470.74-18.65 470.19-19.1 468.67-19.83 467.14-20.55 465.97-20.55 464.79-20.55 464.17-20.03 463.54-19.5 463.54-18.57 463.54-17.65 465.27-16.73 466.99-15.8 469.04-15.03 471.09-14.25 472.82-12.48 474.54-10.7 474.54-8.25L474.54-8.25Q474.54-4.75 471.67-2.1 468.79 0.55 465.04 0.55L465.04 0.55Q462.64 0.55 460.57-0.5 458.49-1.55 457.59-2.6L457.59-2.6 456.69-3.65 460.64-8.25Q460.94-7.85 461.49-7.25 462.04-6.65 463.67-5.65 465.29-4.65 466.79-4.65Z" opacity="1" transform="matrix(1,0,0,1,0,0)" fill="#cae6d3" class="slogan-text-1" data-fill-palette-color="secondary" id="text-1"></path></svg></g></svg></g></svg></g></svg></g><g transform="matrix(1,0,0,1,91.00688742630439,0)"><svg viewBox="0 0 213.5062251473912 178.9893857154491" height="178.9893857154491" width="213.5062251473912"><g><svg xmlns="http://www.w3.org/2000/svg" data-name="Layer 2" viewBox="14 19.819999898757985 72 60.36000010124202" x="0" y="0" height="178.9893857154491" width="213.5062251473912" class="icon-icon-0" data-fill-palette-color="accent" id="icon-0"><path d="M19.62 41.16H40.38A5.62 5.62 0 0 1 46 46.78V57.59A1 1 0 0 1 44 57.59V46.78A3.62 3.62 0 0 0 40.38 43.16H19.62A3.62 3.62 0 0 0 16 46.78V57.59A1 1 0 0 1 14 57.59V46.78A5.62 5.62 0 0 1 19.62 41.16M30.41 19.82A7.4 7.4 0 0 1 37.76 28L37.35 31.94A7.4 7.4 0 0 1 22.64 31.94L22.24 28A7.4 7.4 0 0 1 29.6 19.84ZM34.41 23.6A5.4 5.4 0 0 0 30.41 21.82H29.6A5.4 5.4 0 0 0 24.23 27.82L24.64 31.76A5.4 5.4 0 0 0 35.38 31.76L35.79 27.82A5.4 5.4 0 0 0 34.42 23.6ZM86 46.78A5.62 5.62 0 0 0 80.38 41.16H59.62A5.62 5.62 0 0 0 54 46.78V57.59A1 1 0 0 0 56 57.59V46.78A3.62 3.62 0 0 1 59.62 43.16H80.38A3.62 3.62 0 0 1 84 46.78V57.59A1 1 0 1 0 86 57.59ZM64.1 22.26A7.4 7.4 0 0 1 69.59 19.82H70.4A7.4 7.4 0 0 1 77.76 28L77.35 31.94A7.4 7.4 0 0 1 62.64 31.94L62.24 28A7.4 7.4 0 0 1 64.1 22.26M64.23 27.77L64.64 31.71A5.4 5.4 0 0 0 75.38 31.71L75.79 27.77A5.4 5.4 0 0 0 70.42 21.77H69.61A5.4 5.4 0 0 0 64.24 27.77ZM37.78 62.77A1 1 0 0 0 39.19 61.36L30.7 52.87A1 1 0 0 0 29.29 52.87L20.8 61.36A1 1 0 0 0 22.21 62.77L29 56V72.18A8 8 0 0 0 37 80.18H63A8 8 0 0 0 71 72.18V56L77.78 62.78A1 1 0 0 0 79.19 61.37L70.7 52.88A1 1 0 0 0 69.29 52.88L60.8 61.37A1 1 0 0 0 62.21 62.78L69 56V72.18A6 6 0 0 1 63 78.18H37A6 6 0 0 1 31 72.18V56Z" fill="#06303e" data-fill-palette-color="accent"></path></svg></g></svg></g><g></g></svg></g><defs></defs></svg><rect width="300.47563677128494" height="247.2" fill="none" stroke="none" visibility="hidden"></rect></g></svg></g></svg>